{
  "accessors": [
    {
      "bufferView": 2,
      "componentType": 5126,
      "count": 62,
      "max": [
        8.3784570693969727,
        0.94413590431213379,
        0.64196997880935669
      ],
      "min": [
        8.0429601669311523,
        0.62505888938903809,
        0.046121001243591309
      ],
      "type": "VEC3"
    },
    {
      "bufferView": 2,
      "byteOffset": 744,
      "componentType": 5126,
      "count": 62,
      "max": [
        0.95105654001235962,
        1,
        1
      ],
      "min": [
        -0.95105654001235962,
        -1,
        -1
      ],
      "type": "VEC3"
    },
    {
      "bufferView": 3,
      "componentType": 5126,
      "count": 62,
      "max": [
        1,
        0.95105665922164917,
        0,
        1
      ],
      "min": [
        -1,
        -0.95105665922164917,
        0,
        1
      ],
      "type": "VEC4"
    },
    {
      "bufferView": 0,
      "componentType": 5125,
      "count": 120,
      "max": [
        61
      ],
      "min": [
        0
      ],
      "type": "SCALAR"
    },
    {
      "bufferView": 2,
      "byteOffset": 1488,
      "componentType": 5126,
      "count": 60,
      "max": [
        6.6576452255249023,
        3.9705140590667725,
        5.2454519271850586
      ],
      "min": [
        6.0117549896240234,
        1.4807219505310059,
        2.797213077545166
      ],
      "type": "VEC3"
    },
    {
      "bufferView": 2,
      "byteOffset": 2208,
      "componentType": 5126,
      "count": 60,
      "max": [
        1,
        1,
        0.86104190349578857
      ],
      "min": [
        -0.86104190349578857,
        -1,
        -0.86104190349578857
      ],
      "type": "VEC3"
    },
    {
      "bufferView": 3,
      "byteOffset": 992,
      "componentType": 5126,
      "count": 60,
      "max": [
        1,
        1,
        0,
        1
      ],
      "min": [
        -1,
        -1,
        -0.86104434728622437,
        1
      ],
      "type": "VEC4"
    },
    {
      "bufferView": 1,
      "componentType": 5126,
      "count": 60,
      "max": [
        -0.36285701394081116,
        0.93666797876358032
      ],
      "min": [
        -1.1128569841384888,
        -2.0694980621337891
      ],
      "type": "VEC2"
    },
    {
      "bufferView": 0,
      "byteOffset": 480,
      "componentType": 5125,
      "count": 90,
      "max": [
        59
      ],
      "min": [
        0
      ],
      "type": "SCALAR"
    },
    {
      "bufferView": 2,
      "byteOffset": 2928,
      "componentType": 5126,
      "count": 290,
      "max": [
        6.3763294219970703,
        4.3289098739624023,
        6.4985542297363281
      ],
      "min": [
        0.50881600379943848,
        1.181480884552002,
        0.043928001075983047
      ],
      "type": "VEC3"
    },
    {
      "bufferView": 2,
      "byteOffset": 6408,
      "componentType": 5126,
      "count": 290,
      "max": [
        1,
        1,
        0.99999856948852539
      ],
      "min": [
        -1,
        -1,
        -1
      ],
      "type": "VEC3"
    },
    {
      "bufferView": 3,
      "byteOffset": 1952,
      "componentType": 5126,
      "count": 290,
      "max": [
        1,
        1,
        0.99998122453689575,
        1
      ],
      "min": [
        -1,
        -1,
        -0.92311710119247437,
        1
      ],
      "type": "VEC4"
    },
    {
      "bufferView": 1,
      "byteOffset": 480,
      "componentType": 5126,
      "count": 290,
      "max": [
        0.98789000511169434,
        0.99455100297927856
      ],
      "min": [
        0.035555001348257065,
        0.021719999611377716
      ],
      "type": "VEC2"
    },
    {
      "bufferView": 0,
      "byteOffset": 840,
      "componentType": 5125,
      "count": 489,
      "max": [
        289
      ],
      "min": [
        0
      ],
      "type": "SCALAR"
    },
    {
      "bufferView": 2,
      "byteOffset": 9888,
      "componentType": 5126,
      "count": 1428,
      "max": [
        6.6100482940673828,
        4.6540317535400391,
        6.4985542297363281
      ],
      "min": [
        0,
        0.1947779655456543,
        0
      ],
      "type": "VEC3"
    },
    {
      "bufferView": 2,
      "byteOffset": 27024,
      "componentType": 5126,
      "count": 1428,
      "max": [
        1,
        1,
        1
      ],
      "min": [
        -1,
        -1,
        -1
      ],
      "type": "VEC3"
    },
    {
      "bufferView": 3,
      "byteOffset": 6592,
      "componentType": 5126,
      "count": 1428,
      "max": [
        0.9999992847442627,
        1,
        1,
        1
      ],
      "min": [
        -0.99991029500961304,
        -1,
        -1,
        -1
      ],
      "type": "VEC4"
    },
    {
      "bufferView": 1,
      "byteOffset": 2800,
      "componentType": 5126,
      "count": 1428,
      "max": [
        0.98515099287033081,
        0.99404799938201904
      ],
      "min": [
        0.035555001348257065,
        0.0089680003002285957
      ],
      "type": "VEC2"
    },
    {
      "bufferView": 0,
      "byteOffset": 2796,
      "componentType": 5125,
      "count": 2445,
      "max": [
        1427
      ],
      "min": [
        0
      ],
      "type": "SCALAR"
    },
    {
      "bufferView": 2,
      "byteOffset": 44160,
      "componentType": 5126,
      "count": 481,
      "max": [
        6.889376163482666,
        4.6441249847412109,
        3.4435920715332031
      ],
      "min": [
        0.50202202796936035,
        0,
        0.0049340017139911652
      ],
      "type": "VEC3"
    },
    {
      "bufferView": 2,
      "byteOffset": 49932,
      "componentType": 5126,
      "count": 481,
      "max": [
        1,
        1,
        1
      ],
      "min": [
        -1,
        -1,
        -1
      ],
      "type": "VEC3"
    },
    {
      "bufferView": 3,
      "byteOffset": 29440,
      "componentType": 5126,
      "count": 481,
      "max": [
        1,
        1,
        1,
        1
      ],
      "min": [
        -1,
        -1,
        -1,
        -1
      ],
      "type": "VEC4"
    },
    {
      "bufferView": 1,
      "byteOffset": 14224,
      "componentType": 5126,
      "count": 481,
      "max": [
        0.97846299409866333,
        0.99360400438308716
      ],
      "min": [
        0.02062699943780899,
        0.0035379999317228794
      ],
      "type": "VEC2"
    },
    {
      "bufferView": 0,
      "byteOffset": 12576,
      "componentType": 5125,
      "count": 783,
      "max": [
        480
      ],
      "min": [
        0
      ],
      "type": "SCALAR"
    },
    {
      "bufferView": 2,
      "byteOffset": 55704,
      "componentType": 5126,
      "count": 83,
      "max": [
        6.5543937683105469,
        4.6192069053649902,
        6.6049633026123047
      ],
      "min": [
        0.42471504211425781,
        0.19954204559326172,
        4.014279842376709
      ],
      "type": "VEC3"
    },
    {
      "bufferView": 2,
      "byteOffset": 56700,
      "componentType": 5126,
      "count": 83,
      "max": [
        1,
        1,
        0.99966925382614136
      ],
      "min": [
        -1,
        -1,
        -0.90653723478317261
      ],
      "type": "VEC3"
    },
    {
      "bufferView": 3,
      "byteOffset": 37136,
      "componentType": 5126,
      "count": 83,
      "max": [
        0.39655858278274536,
        0.90652585029602051,
        0.99999767541885376,
        1
      ],
      "min": [
        -0.44428667426109314,
        -0.99964302778244019,
        -0.99997460842132568,
        1
      ],
      "type": "VEC4"
    },
    {
      "bufferView": 1,
      "byteOffset": 18072,
      "componentType": 5126,
      "count": 83,
      "max": [
        1.004127025604248,
        0.97252798080444336
      ],
      "min": [
        0.014034000225365162,
        0.029780000448226929
      ],
      "type": "VEC2"
    },
    {
      "bufferView": 0,
      "byteOffset": 15708,
      "componentType": 5125,
      "count": 177,
      "max": [
        82
      ],
      "min": [
        0
      ],
      "type": "SCALAR"
    },
    {
      "bufferView": 2,
      "byteOffset": 57696,
      "componentType": 5126,
      "count": 143,
      "max": [
        6.5543937683105469,
        4.6192069053649902,
        7.4746870994567871
      ],
      "min": [
        0.42471504211425781,
        0.19954204559326172,
        3.9429588317871094
      ],
      "type": "VEC3"
    },
    {
      "bufferView": 2,
      "byteOffset": 59412,
      "componentType": 5126,
      "count": 143,
      "max": [
        1,
        1,
        1
      ],
      "min": [
        -1,
        -1,
        -0.99966925382614136
      ],
      "type": "VEC3"
    },
    {
      "bufferView": 3,
      "byteOffset": 38464,
      "componentType": 5126,
      "count": 143,
      "max": [
        0.99996215105056763,
        0.99997889995574951,
        0.99997735023498535,
        1
      ],
      "min": [
        -1,
        -0.99997895956039429,
        -0.99999922513961792,
        1
      ],
      "type": "VEC4"
    },
    {
      "bufferView": 1,
      "byteOffset": 18736,
      "componentType": 5126,
      "count": 143,
      "max": [
        0.99432599544525146,
        0.99685001373291016
      ],
      "min": [
        0.0042300000786781311,
        0.036364998668432236
      ],
      "type": "VEC2"
    },
    {
      "bufferView": 0,
      "byteOffset": 16416,
      "componentType": 5125,
      "count": 279,
      "max": [
        142
      ],
      "min": [
        0
      ],
      "type": "SCALAR"
    },
    {
      "bufferView": 2,
      "byteOffset": 61128,
      "componentType": 5126,
      "count": 66,
      "max": [
        4.2852940559387207,
        2.7354049682617188,
        6.0386652946472168
      ],
      "min": [
        3.1016120910644531,
        1.8358289003372192,
        4.4714221954345703
      ],
      "type": "VEC3"
    },
    {
      "bufferView": 2,
      "byteOffset": 61920,
      "componentType": 5126,
      "count": 66,
      "max": [
        1,
        -0,
        1
      ],
      "min": [
        -1,
        -1,
        -1
      ],
      "type": "VEC3"
    },
    {
      "bufferView": 3,
      "byteOffset": 40752,
      "componentType": 5126,
      "count": 66,
      "max": [
        1,
        0.99998503923416138,
        0.98557490110397339,
        1
      ],
      "min": [
        -0.006932724267244339,
        -0.99998730421066284,
        -0.98557490110397339,
        1
      ],
      "type": "VEC4"
    },
    {
      "bufferView": 1,
      "byteOffset": 19880,
      "componentType": 5126,
      "count": 66,
      "max": [
        0.99179697036743164,
        0.97069597244262695
      ],
      "min": [
        0.0017310000257566571,
        0.093332000076770782
      ],
      "type": "VEC2"
    },
    {
      "bufferView": 0,
      "byteOffset": 17532,
      "componentType": 5125,
      "count": 126,
      "max": [
        65
      ],
      "min": [
        0
      ],
      "type": "SCALAR"
    },
    {
      "bufferView": 2,
      "byteOffset": 62712,
      "componentType": 5126,
      "count": 124,
      "max": [
        6.6202192306518555,
        4.4344849586486816,
        5.1695342063903809
      ],
      "min": [
        0.53068804740905762,
        1.2508199214935303,
        1.9929490089416504
      ],
      "type": "VEC3"
    },
    {
      "bufferView": 2,
      "byteOffset": 64200,
      "componentType": 5126,
      "count": 124,
      "max": [
        1,
        1,
        1
      ],
      "min": [
        -1,
        -1,
        -1
      ],
      "type": "VEC3"
    },
    {
      "bufferView": 3,
      "byteOffset": 41808,
      "componentType": 5126,
      "count": 124,
      "max": [
        1,
        1,
        0,
        1
      ],
      "min": [
        -1,
        0,
        -0.79431337118148804,
        1
      ],
      "type": "VEC4"
    },
    {
      "bufferView": 1,
      "byteOffset": 20408,
      "componentType": 5126,
      "count": 124,
      "max": [
        1.6987680196762085,
        1.5387740135192871
      ],
      "min": [
        -1.2378569841384888,
        -0.52968698740005493
      ],
      "type": "VEC2"
    },
    {
      "bufferView": 0,
      "byteOffset": 18036,
      "componentType": 5125,
      "count": 186,
      "max": [
        123
      ],
      "min": [
        0
      ],
      "type": "SCALAR"
    }
  ],
  "asset": {
    "extras": {
      "author": "hangdsigner (https://sketchfab.com/hangdsigner)",
      "license": "CC-BY-4.0 (http://creativecommons.org/licenses/by/4.0/)",
      "source": "https://sketchfab.com/models/1d0e5ed8b9694d1a865c64a6b64cb109",
      "title": "house"
    },
    "generator": "Sketchfab-3.19.4",
    "version": "2.0"
  },
  "bufferViews": [
    {
      "buffer": 0,
      "byteLength": 18780,
      "byteOffset": 0,
      "name": "floatBufferViews",
      "target": 34963
    },
    {
      "buffer": 0,
      "byteLength": 21400,
      "byteOffset": 18780,
      "byteStride": 8,
      "name": "floatBufferViews",
      "target": 34962
    },
    {
      "buffer": 0,
      "byteLength": 65688,
      "byteOffset": 40180,
      "byteStride": 12,
      "name": "floatBufferViews",
      "target": 34962
    },
    {
      "buffer": 0,
      "byteLength": 43792,
      "byteOffset": 105868,
      "byteStride": 16,
      "name": "floatBufferViews",
      "target": 34962
    }
  ],
  "buffers": [
    {
      "byteLength": 149660,
      "uri": "scene.bin"
    }
  ],
  "extensionsRequired": [
    "KHR_materials_pbrSpecularGlossiness"
  ],
  "extensionsUsed": [
    "KHR_materials_pbrSpecularGlossiness"
  ],
  "images": [
    {
      "uri": "textures/surfaceShader3SG_diffuse.jpeg"
    },
    {
      "uri": "textures/surfaceShader3SG_normal.png"
    },
    {
      "uri": "textures/surfaceShader3SG_specularGlossiness.jpeg"
    },
    {
      "uri": "textures/lambert36SG_diffuse.jpeg"
    },
    {
      "uri": "textures/lambert34SG_diffuse.jpeg"
    },
    {
      "uri": "textures/lambert34SG_specularGlossiness.jpeg"
    },
    {
      "uri": "textures/lambert33SG_diffuse.jpeg"
    },
    {
      "uri": "textures/lambert33SG_specularGlossiness.jpeg"
    },
    {
      "uri": "textures/lambert35SG_diffuse.jpeg"
    },
    {
      "uri": "textures/lambert38SG_diffuse.jpeg"
    },
    {
      "uri": "textures/lambert38SG_specularGlossiness.jpeg"
    },
    {
      "uri": "textures/lambert2SG_diffuse.jpeg"
    }
  ],
  "materials": [
    {
      "doubleSided": true,
      "emissiveFactor": [
        0,
        0,
        0
      ],
      "extensions": {
        "KHR_materials_pbrSpecularGlossiness": {
          "diffuseFactor": [
            1,
            1,
            1,
            1
          ],
          "glossinessFactor": 0.40000000000000002,
          "specularFactor": [
            0,
            0,
            0
          ]
        }
      },
      "name": "initialShadingGroup"
    },
    {
      "doubleSided": true,
      "emissiveFactor": [
        0,
        0,
        0
      ],
      "extensions": {
        "KHR_materials_pbrSpecularGlossiness": {
          "diffuseFactor": [
            1,
            1,
            1,
            1
          ],
          "diffuseTexture": {
            "index": 11,
            "texCoord": 0
          },
          "glossinessFactor": 0.40000000000000002,
          "specularFactor": [
            0,
            0,
            0
          ]
        }
      },
      "name": "lambert2SG"
    },
    {
      "doubleSided": true,
      "emissiveFactor": [
        0,
        0,
        0
      ],
      "extensions": {
        "KHR_materials_pbrSpecularGlossiness": {
          "diffuseFactor": [
            0.97999999999999998,
            0.97999999999999998,
            0.97999999999999998,
            1
          ],
          "diffuseTexture": {
            "index": 6,
            "texCoord": 0
          },
          "glossinessFactor": 0.40000000000000002,
          "specularFactor": [
            1,
            1,
            1
          ],
          "specularGlossinessTexture": {
            "index": 7,
            "texCoord": 0
          }
        }
      },
      "name": "lambert33SG"
    },
    {
      "doubleSided": true,
      "emissiveFactor": [
        0,
        0,
        0
      ],
      "extensions": {
        "KHR_materials_pbrSpecularGlossiness": {
          "diffuseFactor": [
            1,
            1,
            1,
            1
          ],
          "diffuseTexture": {
            "index": 4,
            "texCoord": 0
          },
          "glossinessFactor": 0.40000000000000002,
          "specularFactor": [
            1,
            1,
            1
          ],
          "specularGlossinessTexture": {
            "index": 5,
            "texCoord": 0
          }
        }
      },
      "name": "lambert34SG"
    },
    {
      "doubleSided": true,
      "emissiveFactor": [
        0,
        0,
        0
      ],
      "extensions": {
        "KHR_materials_pbrSpecularGlossiness": {
          "diffuseFactor": [
            1,
            1,
            1,
            1
          ],
          "diffuseTexture": {
            "index": 8,
            "texCoord": 0
          },
          "glossinessFactor": 0.40000000000000002,
          "specularFactor": [
            0,
            0,
            0
          ]
        }
      },
      "name": "lambert35SG"
    },
    {
      "doubleSided": true,
      "emissiveFactor": [
        0,
        0,
        0
      ],
      "extensions": {
        "KHR_materials_pbrSpecularGlossiness": {
          "diffuseFactor": [
            1,
            1,
            1,
            1
          ],
          "diffuseTexture": {
            "index": 3,
            "texCoord": 0
          },
          "glossinessFactor": 0.40000000000000002,
          "specularFactor": [
            0,
            0,
            0
          ]
        }
      },
      "name": "lambert36SG"
    },
    {
      "doubleSided": true,
      "emissiveFactor": [
        0,
        0,
        0
      ],
      "extensions": {
        "KHR_materials_pbrSpecularGlossiness": {
          "diffuseFactor": [
            1,
            1,
            1,
            1
          ],
          "diffuseTexture": {
            "index": 9,
            "texCoord": 0
          },
          "glossinessFactor": 0.40000000000000002,
          "specularFactor": [
            1,
            1,
            1
          ],
          "specularGlossinessTexture": {
            "index": 10,
            "texCoord": 0
          }
        }
      },
      "name": "lambert38SG"
    },
    {
      "doubleSided": true,
      "emissiveFactor": [
        0,
        0,
        0
      ],
      "extensions": {
        "KHR_materials_pbrSpecularGlossiness": {
          "diffuseFactor": [
            1,
            1,
            1,
            1
          ],
          "diffuseTexture": {
            "index": 0,
            "texCoord": 0
          },
          "glossinessFactor": 0.40000000000000002,
          "specularFactor": [
            1,
            1,
            1
          ],
          "specularGlossinessTexture": {
            "index": 2,
            "texCoord": 0
          }
        }
      },
      "name": "surfaceShader3SG",
      "normalTexture": {
        "index": 1,
        "scale": 1,
        "texCoord": 0
      }
    }
  ],
  "meshes": [
    {
      "primitives": [
        {
          "attributes": {
            "NORMAL": 1,
            "POSITION": 0,
            "TANGENT": 2
          },
          "indices": 3,
          "material": 0,
          "mode": 4
        }
      ]
    },
    {
      "primitives": [
        {
          "attributes": {
            "NORMAL": 5,
            "POSITION": 4,
            "TANGENT": 6,
            "TEXCOORD_0": 7
          },
          "indices": 8,
          "material": 1,
          "mode": 4
        }
      ]
    },
    {
      "primitives": [
        {
          "attributes": {
            "NORMAL": 10,
            "POSITION": 9,
            "TANGENT": 11,
            "TEXCOORD_0": 12
          },
          "indices": 13,
          "material": 2,
          "mode": 4
        }
      ]
    },
    {
      "primitives": [
        {
          "attributes": {
            "NORMAL": 15,
            "POSITION": 14,
            "TANGENT": 16,
            "TEXCOORD_0": 17
          },
          "indices": 18,
          "material": 2,
          "mode": 4
        }
      ]
    },
    {
      "primitives": [
        {
          "attributes": {
            "NORMAL": 20,
            "POSITION": 19,
            "TANGENT": 21,
            "TEXCOORD_0": 22
          },
          "indices": 23,
          "material": 3,
          "mode": 4
        }
      ]
    },
    {
      "primitives": [
        {
          "attributes": {
            "NORMAL": 25,
            "POSITION": 24,
            "TANGENT": 26,
            "TEXCOORD_0": 27
          },
          "indices": 28,
          "material": 4,
          "mode": 4
        }
      ]
    },
    {
      "primitives": [
        {
          "attributes": {
            "NORMAL": 30,
            "POSITION": 29,
            "TANGENT": 31,
            "TEXCOORD_0": 32
          },
          "indices": 33,
          "material": 5,
          "mode": 4
        }
      ]
    },
    {
      "primitives": [
        {
          "attributes": {
            "NORMAL": 35,
            "POSITION": 34,
            "TANGENT": 36,
            "TEXCOORD_0": 37
          },
          "indices": 38,
          "material": 6,
          "mode": 4
        }
      ]
    },
    {
      "primitives": [
        {
          "attributes": {
            "NORMAL": 40,
            "POSITION": 39,
            "TANGENT": 41,
            "TEXCOORD_0": 42
          },
          "indices": 43,
          "material": 7,
          "mode": 4
        }
      ]
    }
  ],
  "nodes": [
    {
      "children": [
        1
      ],
      "name": "RootNode (gltf orientation matrix)",
      "rotation": [
        -0.70710678118654746,
        -0,
        -0,
        0.70710678118654757
      ]
    },
    {
      "children": [
        2
      ],
      "name": "RootNode (model correction matrix)"
    },
    {
      "children": [
        3
      ],
      "matrix": [
        1,
        0,
        0,
        0,
        0,
        1,
        0,
        0,
        0,
        0,
        1,
        0,
        -3.3887290954589844,
        -3.7072019577026367,
        -0.046121001243591309,
        1
      ],
      "name": "1.obj.cleaner.gles"
    },
    {
      "children": [
        4,
        5,
        6,
        7,
        8,
        9,
        10,
        11,
        12
      ],
      "name": ""
    },
    {
      "mesh": 0,
      "name": ""
    },
    {
      "mesh": 1,
      "name": ""
    },
    {
      "mesh": 2,
      "name": ""
    },
    {
      "mesh": 3,
      "name": ""
    },
    {
      "mesh": 4,
      "name": ""
    },
    {
      "mesh": 5,
      "name": ""
    },
    {
      "mesh": 6,
      "name": ""
    },
    {
      "mesh": 7,
      "name": ""
    },
    {
      "mesh": 8,
      "name": ""
    }
  ],
  "samplers": [
    {
      "magFilter": 9729,
      "minFilter": 9987,
      "wrapS": 33648,
      "wrapT": 33071
    },
    {
      "magFilter": 9729,
      "minFilter": 9987,
      "wrapS": 10497,
      "wrapT": 10497
    }
  ],
  "scene": 0,
  "scenes": [
    {
      "name": "OSG_Scene",
      "nodes": [
        0
      ]
    }
  ],
  "textures": [
    {
      "sampler": 0,
      "source": 0
    },
    {
      "sampler": 1,
      "source": 1
    },
    {
      "sampler": 1,
      "source": 2
    },
    {
      "sampler": 1,
      "source": 3
    },
    {
      "sampler": 1,
      "source": 4
    },
    {
      "sampler": 1,
      "source": 5
    },
    {
      "sampler": 1,
      "source": 6
    },
    {
      "sampler": 1,
      "source": 7
    },
    {
      "sampler": 1,
      "source": 8
    },
    {
      "sampler": 1,
      "source": 9
    },
    {
      "sampler": 1,
      "source": 10
    },
    {
      "sampler": 1,
      "source": 11
    }
  ]
}

